<?xml version="1.0" encoding="UTF-8"?>
<svg id="a" data-name="Capa 1" xmlns="http://www.w3.org/2000/svg" viewBox="0 0 76.55 35.9">
  <defs>
    <style>
      .cu {
        stroke-width: 0px;
      }
    </style>
  </defs>
  <path id="b" data-name="Trazado 7502" class="cu" d="m.87,0C.39,0,0,.39,0,.87s.39.87.87.87.87-.39.87-.87h0C1.74.39,1.35,0,.87,0c0,0,0,0,0,0"/>
  <path id="c" data-name="Trazado 7503" class="cu" d="m.87,2.76c-.48,0-.87.39-.87.87s.39.87.87.87.87-.39.87-.87h0c0-.48-.39-.87-.87-.87"/>
  <path id="d" data-name="Trazado 7504" class="cu" d="m3.61,2.76c-.48,0-.87.39-.87.87s.39.87.87.87.87-.39.87-.87h0c0-.48-.39-.87-.87-.87"/>
  <path id="e" data-name="Trazado 7505" class="cu" d="m3.61,5.03c-.48,0-.87.39-.87.87s.39.87.87.87.87-.39.87-.87h0c0-.48-.39-.87-.87-.87"/>
  <path id="f" data-name="Trazado 7506" class="cu" d="m6.18,6.77c.43,0,.78-.35.78-.78,0-.43-.35-.78-.78-.78-.43,0-.78.35-.78.78,0,0,0,0,0,0,0,.43.35.78.78.78"/>
  <path id="g" data-name="Trazado 7507" class="cu" d="m9.02,6.77c.43,0,.78-.35.78-.78,0-.43-.35-.78-.78-.78-.43,0-.78.35-.78.78,0,.43.35.78.78.78,0,0,0,0,0,0"/>
  <path id="h" data-name="Trazado 7508" class="cu" d="m11.8,6.77c.43,0,.78-.35.78-.78,0-.43-.35-.78-.78-.78-.43,0-.78.35-.78.78,0,0,0,0,0,0,0,.43.35.78.78.78"/>
  <path id="i" data-name="Trazado 7509" class="cu" d="m3.61,9.9c-.48,0-.87.39-.87.87s.39.87.87.87.87-.39.87-.87h0c0-.48-.39-.87-.87-.87"/>
  <path id="j" data-name="Trazado 7510" class="cu" d="m3.61,12.33c-.48,0-.87.39-.87.87s.39.87.87.87.87-.39.87-.87h0c0-.48-.39-.87-.87-.87"/>
  <path id="k" data-name="Trazado 7511" class="cu" d="m3.61,14.77c-.48,0-.87.39-.87.87s.39.87.87.87.87-.39.87-.87h0c0-.48-.39-.87-.87-.87"/>
  <path id="l" data-name="Trazado 7512" class="cu" d="m.87,5.52c-.48,0-.87.39-.87.87s.39.87.87.87.87-.39.87-.87h0c0-.48-.39-.87-.87-.87"/>
  <path id="m" data-name="Trazado 7513" class="cu" d="m.87,8.27c-.48,0-.87.39-.87.87s.39.87.87.87.87-.39.87-.87h0c0-.48-.39-.87-.87-.87"/>
  <path id="n" data-name="Trazado 7514" class="cu" d="m6.18,7.52c-.48,0-.87.39-.87.87s.39.87.87.87.87-.39.87-.87c0-.48-.39-.87-.87-.87"/>
  <path id="o" data-name="Trazado 7515" class="cu" d="m6.18,9.9c-.48,0-.87.39-.87.87s.39.87.87.87.87-.39.87-.87h0c0-.48-.39-.87-.87-.87"/>
  <path id="p" data-name="Trazado 7516" class="cu" d="m6.18,17.31c-.48,0-.87.39-.87.87s.39.87.87.87.87-.39.87-.87-.39-.87-.87-.87h0"/>
  <path id="q" data-name="Trazado 7517" class="cu" d="m9.02,9.9c-.48,0-.87.39-.87.87s.39.87.87.87.87-.39.87-.87h0c0-.48-.39-.87-.87-.87"/>
  <path id="r" data-name="Trazado 7518" class="cu" d="m9.02,12.28c-.48,0-.87.39-.87.87s.39.87.87.87.87-.39.87-.87h0c0-.48-.39-.87-.87-.87"/>
  <path id="s" data-name="Trazado 7519" class="cu" d="m9.02,14.76c-.48,0-.87.39-.87.87s.39.87.87.87.87-.39.87-.87h0c0-.48-.39-.87-.87-.87"/>
  <path id="t" data-name="Trazado 7520" class="cu" d="m11.8,9.9c-.48,0-.87.39-.87.87s.39.87.87.87.87-.39.87-.87h0c0-.48-.39-.87-.87-.87"/>
  <path id="u" data-name="Trazado 7521" class="cu" d="m11.8,12.28c-.48,0-.87.39-.87.87s.39.87.87.87.87-.39.87-.87h0c0-.48-.39-.87-.87-.87"/>
  <path id="v" data-name="Trazado 7522" class="cu" d="m11.8,14.76c-.48,0-.87.39-.87.87s.39.87.87.87.87-.39.87-.87h0c0-.48-.39-.87-.87-.87"/>
  <path id="w" data-name="Trazado 7523" class="cu" d="m11.8,17.13c-.48,0-.87.39-.87.87s.39.87.87.87.87-.39.87-.87c0-.48-.39-.87-.87-.87"/>
  <path id="x" data-name="Trazado 7524" class="cu" d="m11.8,19.48c-.48,0-.87.39-.87.87s.39.87.87.87.87-.39.87-.87c0-.48-.39-.87-.87-.87"/>
  <path id="y" data-name="Trazado 7525" class="cu" d="m11.8,21.83c-.48,0-.87.39-.87.87s.39.87.87.87.87-.39.87-.87c0-.48-.39-.87-.87-.87"/>
  <path id="z" data-name="Trazado 7526" class="cu" d="m11.8,24.28c-.48,0-.87.39-.87.87s.39.87.87.87.87-.39.87-.87-.39-.87-.87-.87h0"/>
  <path id="aa" data-name="Trazado 7527" class="cu" d="m14.46,9.9c-.48,0-.87.39-.87.87s.39.87.87.87.87-.39.87-.87h0c0-.48-.39-.87-.87-.87"/>
  <path id="ab" data-name="Trazado 7528" class="cu" d="m14.46,12.28c-.48,0-.87.39-.87.87s.39.87.87.87.87-.39.87-.87h0c0-.48-.39-.87-.87-.87"/>
  <path id="ac" data-name="Trazado 7529" class="cu" d="m17.2,12.44c-.48,0-.87.39-.87.87s.39.87.87.87c.48,0,.87-.39.87-.87s-.39-.87-.87-.87h0"/>
  <path id="ad" data-name="Trazado 7530" class="cu" d="m17.2,14.76c-.48,0-.87.39-.87.87s.39.87.87.87.87-.39.87-.87-.39-.87-.87-.87h0"/>
  <path id="ae" data-name="Trazado 7531" class="cu" d="m17.2,17.13c-.48,0-.87.39-.87.87s.39.87.87.87.87-.39.87-.87-.39-.87-.87-.87h0"/>
  <path id="af" data-name="Trazado 7532" class="cu" d="m17.2,19.48c-.48,0-.87.39-.87.87s.39.87.87.87.87-.39.87-.87-.39-.87-.87-.87h0"/>
  <path id="ag" data-name="Trazado 7533" class="cu" d="m17.2,21.83c-.48,0-.87.39-.87.87s.39.87.87.87.87-.39.87-.87-.39-.87-.87-.87h0"/>
  <path id="ah" data-name="Trazado 7534" class="cu" d="m17.2,24.28c-.48,0-.87.39-.87.87s.39.87.87.87.87-.39.87-.87-.39-.87-.87-.87h0"/>
  <path id="ai" data-name="Trazado 7535" class="cu" d="m17.2,26.61c-.48,0-.87.39-.87.87s.39.87.87.87.87-.39.87-.87-.39-.87-.87-.87h0"/>
  <path id="aj" data-name="Trazado 7536" class="cu" d="m19.78,12.59c-.48,0-.87.39-.87.87s.39.87.87.87c.48,0,.87-.39.87-.87s-.39-.87-.87-.87h0"/>
  <path id="ak" data-name="Trazado 7537" class="cu" d="m19.78,14.76c-.48,0-.87.39-.87.87s.39.87.87.87.87-.39.87-.87c0-.48-.39-.87-.87-.87,0,0,0,0,0,0"/>
  <path id="al" data-name="Trazado 7538" class="cu" d="m19.78,17.13c-.48,0-.87.39-.87.87s.39.87.87.87.87-.39.87-.87-.39-.87-.87-.87h0"/>
  <path id="am" data-name="Trazado 7539" class="cu" d="m19.78,19.48c-.48,0-.87.39-.87.87s.39.87.87.87.87-.39.87-.87-.39-.87-.87-.87h0"/>
  <path id="an" data-name="Trazado 7540" class="cu" d="m19.78,21.83c-.48,0-.87.39-.87.87s.39.87.87.87.87-.39.87-.87-.39-.87-.87-.87h0"/>
  <path id="ao" data-name="Trazado 7541" class="cu" d="m19.78,24.28c-.48,0-.87.39-.87.87s.39.87.87.87.87-.39.87-.87c0-.48-.39-.87-.87-.87h0"/>
  <path id="ap" data-name="Trazado 7542" class="cu" d="m19.78,26.61c-.48,0-.87.39-.87.87s.39.87.87.87.87-.39.87-.87-.39-.87-.87-.87h0"/>
  <path id="aq" data-name="Trazado 7543" class="cu" d="m19.78,29.34c-.48,0-.87.39-.87.87s.39.87.87.87.87-.39.87-.87c0-.48-.39-.87-.87-.87h0"/>
  <path id="ar" data-name="Trazado 7544" class="cu" d="m22.5,31.75c-.48,0-.87.39-.87.87s.39.87.87.87c.48,0,.87-.39.87-.87h0c0-.48-.39-.87-.87-.87h0"/>
  <path id="as" data-name="Trazado 7545" class="cu" d="m22.5,14.76c-.48,0-.87.39-.87.87s.39.87.87.87.87-.39.87-.87c0-.48-.39-.87-.87-.87,0,0,0,0,0,0"/>
  <path id="at" data-name="Trazado 7546" class="cu" d="m22.5,17.13c-.48,0-.87.39-.87.87s.39.87.87.87.87-.39.87-.87-.39-.87-.87-.87h0"/>
  <path id="au" data-name="Trazado 7547" class="cu" d="m22.5,19.48c-.48,0-.87.39-.87.87s.39.87.87.87.87-.39.87-.87-.39-.87-.87-.87h0"/>
  <path id="av" data-name="Trazado 7548" class="cu" d="m22.5,21.83c-.48,0-.87.39-.87.87s.39.87.87.87.87-.39.87-.87-.39-.87-.87-.87h0"/>
  <path id="aw" data-name="Trazado 7549" class="cu" d="m22.5,24.28c-.48,0-.87.39-.87.87s.39.87.87.87.87-.39.87-.87c0-.48-.39-.87-.87-.87h0"/>
  <path id="ax" data-name="Trazado 7550" class="cu" d="m22.5,26.61c-.48,0-.87.39-.87.87s.39.87.87.87.87-.39.87-.87-.39-.87-.87-.87h0"/>
  <path id="ay" data-name="Trazado 7551" class="cu" d="m22.5,29.34c-.48,0-.87.39-.87.87s.39.87.87.87.87-.39.87-.87c0-.48-.39-.87-.87-.87h0"/>
  <path id="az" data-name="Trazado 7552" class="cu" d="m25.25,31.75c-.48,0-.87.39-.87.87s.39.87.87.87c.48,0,.87-.39.87-.87h0c0-.48-.39-.87-.87-.87"/>
  <path id="ba" data-name="Trazado 7553" class="cu" d="m25.25,26.61c-.48,0-.87.39-.87.87s.39.87.87.87.87-.39.87-.87c0-.48-.39-.87-.87-.87"/>
  <path id="bb" data-name="Trazado 7554" class="cu" d="m25.25,29.34c-.48,0-.87.39-.87.87s.39.87.87.87.87-.39.87-.87-.39-.87-.87-.87h0"/>
  <path id="bc" data-name="Trazado 7555" class="cu" d="m27.95,31.75c-.48,0-.87.39-.87.87s.39.87.87.87c.48,0,.87-.39.87-.87h0c0-.48-.39-.87-.87-.87"/>
  <path id="bd" data-name="Trazado 7556" class="cu" d="m27.95,26.61c-.48,0-.87.39-.87.87s.39.87.87.87.87-.39.87-.87c0-.48-.39-.87-.87-.87"/>
  <path id="be" data-name="Trazado 7557" class="cu" d="m27.95,29.34c-.48,0-.87.39-.87.87s.39.87.87.87.87-.39.87-.87-.39-.87-.87-.87h0"/>
  <path id="bf" data-name="Trazado 7558" class="cu" d="m30.64,31.75c-.48,0-.87.39-.87.87s.39.87.87.87c.48,0,.87-.39.87-.87h0c0-.48-.39-.87-.87-.87"/>
  <path id="bg" data-name="Trazado 7559" class="cu" d="m27.95,34.16c-.48,0-.87.39-.87.87s.39.87.87.87c.48,0,.87-.39.87-.87h0c0-.48-.39-.87-.87-.87"/>
  <path id="bh" data-name="Trazado 7560" class="cu" d="m30.64,34.16c-.48,0-.87.39-.87.87s.39.87.87.87c.48,0,.87-.39.87-.87h0c0-.48-.39-.87-.87-.87"/>
  <path id="bi" data-name="Trazado 7561" class="cu" d="m30.64,26.61c-.48,0-.87.39-.87.87s.39.87.87.87.87-.39.87-.87c0-.48-.39-.87-.87-.87"/>
  <path id="bj" data-name="Trazado 7562" class="cu" d="m30.64,29.34c-.48,0-.87.39-.87.87s.39.87.87.87.87-.39.87-.87-.39-.87-.87-.87h0"/>
  <path id="bk" data-name="Trazado 7563" class="cu" d="m33.3,31.75c-.48,0-.87.39-.87.87,0,.48.39.87.87.87.48,0,.87-.39.87-.87h0c0-.48-.39-.87-.87-.87"/>
  <path id="bl" data-name="Trazado 7564" class="cu" d="m33.3,24.28c-.48,0-.87.39-.87.87,0,.48.39.87.87.87s.87-.39.87-.87h0c0-.48-.39-.87-.87-.87"/>
  <path id="bm" data-name="Trazado 7565" class="cu" d="m30.64,24.28c-.48,0-.87.39-.87.87s.39.87.87.87.87-.39.87-.87-.39-.87-.87-.87h0"/>
  <path id="bn" data-name="Trazado 7566" class="cu" d="m36.06,24.28c-.48,0-.87.39-.87.87,0,.48.39.87.87.87s.87-.39.87-.87h0c0-.48-.39-.87-.87-.87h0"/>
  <path id="bo" data-name="Trazado 7567" class="cu" d="m33.3,26.61c-.48,0-.87.39-.87.87,0,.48.39.87.87.87s.87-.39.87-.87h0c0-.48-.39-.87-.87-.87"/>
  <path id="bp" data-name="Trazado 7568" class="cu" d="m36.06,26.61c-.48,0-.87.39-.87.87,0,.48.39.87.87.87s.87-.39.87-.87h0c0-.48-.39-.87-.87-.87"/>
  <path id="bq" data-name="Trazado 7569" class="cu" d="m33.3,29.31c-.48,0-.87.39-.87.87,0,.48.39.87.87.87s.87-.39.87-.87h0c0-.48-.39-.87-.87-.87"/>
  <path id="br" data-name="Trazado 7570" class="cu" d="m36.06,29.31c-.48,0-.87.39-.87.87,0,.48.39.87.87.87s.87-.39.87-.87h0c0-.48-.39-.87-.87-.87"/>
  <path id="bs" data-name="Trazado 7571" class="cu" d="m14.46,14.76c-.48,0-.87.39-.87.87s.39.87.87.87.87-.39.87-.87h0c0-.48-.39-.87-.87-.87"/>
  <path id="bt" data-name="Trazado 7572" class="cu" d="m14.46,17.13c-.48,0-.87.39-.87.87s.39.87.87.87.87-.39.87-.87c0-.48-.39-.87-.87-.87"/>
  <path id="bu" data-name="Trazado 7573" class="cu" d="m14.46,19.48c-.48,0-.87.39-.87.87s.39.87.87.87.87-.39.87-.87c0-.48-.39-.87-.87-.87"/>
  <path id="bv" data-name="Trazado 7574" class="cu" d="m14.46,21.83c-.48,0-.87.39-.87.87s.39.87.87.87.87-.39.87-.87c0-.48-.39-.87-.87-.87"/>
  <path id="bw" data-name="Trazado 7575" class="cu" d="m14.46,24.28c-.48,0-.87.39-.87.87s.39.87.87.87.87-.39.87-.87-.39-.87-.87-.87h0"/>
  <path id="bx" data-name="Trazado 7576" class="cu" d="m14.46,26.61c-.48,0-.87.39-.87.87s.39.87.87.87.87-.39.87-.87c0-.48-.39-.87-.87-.87"/>
  <path id="by" data-name="Trazado 7577" class="cu" d="m9.02,7.52c-.48,0-.87.39-.87.87s.39.87.87.87.87-.39.87-.87c0-.48-.39-.87-.87-.87"/>
  <path id="bz" data-name="Trazado 7578" class="cu" d="m11.8,7.52c-.48,0-.87.39-.87.87s.39.87.87.87.87-.39.87-.87c0-.48-.39-.87-.87-.87"/>
  <path id="ca" data-name="Trazado 7579" class="cu" d="m14.46,7.52c-.48,0-.87.39-.87.87s.39.87.87.87.87-.39.87-.87c0-.48-.39-.87-.87-.87"/>
  <path id="cb" data-name="Trazado 7580" class="cu" d="m.87,10.85c-.48,0-.87.39-.87.87s.39.87.87.87.87-.39.87-.87h0c0-.48-.39-.87-.87-.87"/>
  <path id="cc" data-name="Trazado 7581" class="cu" d="m27.14,17.43l-.98.07v4.82h2.76l.1-.76h-1.88v-4.13Z"/>
  <path id="cd" data-name="Trazado 7582" class="cu" d="m38.68,15.64l-4.39-13.25h-7.79v2.43h3.53l-3.57,10.82h2.67l.91-2.88h5.01l.91,2.88h2.73Zm-8.09-4.72l1.89-6.1h.12l1.89,6.1h-3.89Z"/>
  <path id="ce" data-name="Trazado 7583" class="cu" d="m43.79,15.73l.56-1.76c-.7-.25-.93-.85-.93-1.91V1.51l-2.5.19v11.09c0,1.06.39,2.75,2.09,3,.26.04.52.02.77-.06"/>
  <path id="cf" data-name="Trazado 7584" class="cu" d="m53.14,15.09l-.54-1.72c-.5.29-1.07.45-1.65.48-.99,0-1.28-.68-1.28-1.49v-4.53h2.86l.39-1.88h-3.25v-2.5l-1.6.1-.64,2.4h-1.54v1.88h1.28v4.55c0,.77,0,3.44,3.11,3.44.99-.01,1.97-.26,2.85-.73"/>
  <path id="cg" data-name="Trazado 7585" class="cu" d="m61.21,13.72c.07,1.05.87,1.91,1.92,2.07.25.04.51.02.76-.06l.56-1.76c-.7-.25-.93-.85-.93-1.91v-6.29l-1.43.23c-.63-.16-1.27-.23-1.92-.23-3.35,0-5.76,1.99-5.76,5.65,0,2.84,1.47,4.41,3.58,4.41,1.4,0,2.66-.83,3.23-2.11m-2.53.35c-1.04,0-1.66-.99-1.66-2.81,0-2.61,1.26-3.73,2.86-3.73.39,0,.77.05,1.14.16-.02,4.89-1.06,6.39-2.34,6.39"/>
  <path id="ch" data-name="Trazado 7586" class="cu" d="m61.96,1.03h-2.46l-1.08,3.85h1.45c.89-1.17,1.6-2.47,2.09-3.85"/>
  <path id="ci" data-name="Trazado 7587" class="cu" d="m75.22,15.79c.26.04.52.02.77-.06l.56-1.76c-.72-.25-.95-.85-.95-1.91v-3.33c0-2.01-1.08-2.96-2.71-2.96-1.44.02-2.76.84-3.41,2.13-.13-1.3-1.28-2.26-2.59-2.13,0,0,0,0,0,0l-.68,1.78c.75.23.89.77.89,1.49v6.6h2.5v-1.94c0-4.61,1.18-5.96,2.36-5.96.64,0,1.14.41,1.14,1.57v3.48c0,1.06.39,2.75,2.11,3"/>
  <path id="cj" data-name="Trazado 7588" class="cu" d="m32.83,22.36l.21-.65c-.26-.09-.34-.31-.34-.71v-2.32l-.53.09c-.23-.06-.47-.09-.71-.09-1.08-.09-2.03.7-2.12,1.78,0,.1,0,.2,0,.3,0,1.05.54,1.63,1.32,1.63.52,0,.98-.31,1.19-.78.03.39.32.71.71.76.09.01.19,0,.28-.02m-1.92-.61c-.39,0-.61-.36-.61-1.03,0-.97.47-1.38,1.06-1.38.14,0,.28.02.42.06,0,1.81-.39,2.36-.86,2.36"/>
  <path id="ck" data-name="Trazado 7589" class="cu" d="m36.72,19.72v-.19c-.03-.49-.44-.87-.92-.85-.02,0-.03,0-.05,0l-.25.66c.28.08.33.28.33.55v2.44h.92v-.49c0-1.86.44-2.28.92-2.28.12,0,.23.02.34.06l.12-.86c-.12-.04-.25-.06-.38-.07-.49,0-.85.35-1.03,1.04"/>
  <path id="cl" data-name="Trazado 7590" class="cu" d="m41.55,19.8c0-.71-.56-1.12-1.33-1.12-1.01,0-1.84.81-1.84,1.82,0,.05,0,.11,0,.16-.09.87.55,1.64,1.41,1.73.09,0,.18.01.27,0,.48,0,.95-.12,1.36-.37l-.12-.6c-.31.2-.67.31-1.04.32-.48.04-.9-.32-.93-.8,0,0,0-.02,0-.03.21.04.43.06.64.07,1,0,1.59-.44,1.59-1.17m-2.24.54c.06-.66.38-1.07.83-1.07.28-.02.51.19.53.46,0,.02,0,.05,0,.07,0,.39-.3.59-.83.59-.18,0-.36-.02-.53-.06"/>
  <path id="cm" data-name="Trazado 7591" class="cu" d="m45.4,21v-3.89l-.92.07v1.51c-.1,0-.2-.01-.31-.01-1.08-.09-2.03.7-2.12,1.78,0,.1,0,.2,0,.3,0,1.05.54,1.63,1.32,1.63.52,0,.98-.31,1.19-.78.03.39.32.71.71.76.09.01.19,0,.28-.02l.21-.65c-.26-.09-.34-.31-.34-.71m-1.78.74c-.39,0-.61-.36-.61-1.03,0-.97.47-1.38,1.06-1.38.14,0,.28.02.42.06,0,1.81-.39,2.36-.86,2.36"/>
  <path id="cn" data-name="Trazado 7592" class="cu" d="m51.56,21v-3.89l-.92.07v1.51c-.1,0-.2-.01-.31-.01-1.08-.09-2.03.7-2.12,1.78,0,.1,0,.2,0,.3,0,1.05.54,1.63,1.32,1.63.52,0,.98-.31,1.19-.78.03.39.32.71.71.76.09.01.19,0,.28-.02l.21-.65c-.26-.09-.34-.31-.34-.71m-1.78.74c-.39,0-.61-.36-.61-1.03,0-.97.46-1.38,1.06-1.38.14,0,.28.02.42.06,0,1.81-.39,2.36-.86,2.36"/>
  <path id="co" data-name="Trazado 7593" class="cu" d="m55.61,19.8c0-.71-.56-1.12-1.33-1.12-1.01,0-1.83.81-1.84,1.82,0,.05,0,.11,0,.16-.09.87.55,1.64,1.41,1.73.09,0,.18.01.27,0,.48,0,.95-.12,1.36-.37l-.12-.6c-.31.2-.67.31-1.04.32-.48.04-.9-.32-.93-.8,0,0,0-.02,0-.03.21.04.43.06.64.07,1,0,1.59-.44,1.59-1.17m-2.24.54c.06-.66.39-1.07.83-1.07.28-.02.51.19.53.46,0,.02,0,.05,0,.07,0,.39-.3.59-.83.59-.18,0-.36-.02-.54-.06"/>
  <path id="cp" data-name="Trazado 7594" class="cu" d="m59.85,21.67c-.36,0-.47-.25-.47-.55v-1.67h1.06l.14-.69h-1.2v-.92l-.59.03-.24.89h-.56v.69h.47v1.68c-.1.6.31,1.16.91,1.26.08.01.16.02.24.01.37,0,.73-.1,1.05-.27l-.2-.64c-.19.11-.39.17-.61.18"/>
  <path id="cq" data-name="Trazado 7595" class="cu" d="m62.91,18.68c-1.01-.05-1.86.73-1.91,1.74,0,.08,0,.17,0,.25-.1.84.5,1.61,1.35,1.71.1.01.2.01.3,0,1.01.04,1.86-.75,1.9-1.76,0-.08,0-.16,0-.24.1-.84-.49-1.6-1.33-1.71-.1-.01-.21-.01-.31,0m-.19,3.06c-.42,0-.74-.31-.74-1.11s.35-1.28.87-1.28c.42,0,.74.31.74,1.11,0,.84-.35,1.29-.87,1.29"/>
  <path id="cr" data-name="Trazado 7596" class="cu" d="m68.48,21v-3.89l-.92.07v1.51c-.1,0-.2-.01-.31-.01-1.08-.09-2.03.7-2.12,1.78,0,.1,0,.2,0,.3,0,1.05.54,1.63,1.32,1.63.52,0,.98-.31,1.19-.78.03.39.32.71.71.76.09.01.19,0,.28-.02l.21-.65c-.26-.09-.34-.31-.34-.71m-1.79.74c-.39,0-.61-.36-.61-1.03,0-.97.46-1.38,1.06-1.38.14,0,.28.02.42.06,0,1.81-.39,2.36-.86,2.36"/>
  <path id="cs" data-name="Trazado 7597" class="cu" d="m71.26,18.68c-1.01-.05-1.86.73-1.91,1.74,0,.08,0,.17,0,.25-.1.84.5,1.61,1.35,1.71.1.01.2.01.3,0,1.01.04,1.86-.75,1.9-1.76,0-.08,0-.16,0-.24.1-.84-.49-1.6-1.33-1.71-.1-.01-.21-.01-.31,0m-.19,3.06c-.42,0-.74-.31-.74-1.11s.35-1.28.87-1.28c.42,0,.74.31.74,1.11,0,.84-.35,1.29-.87,1.29"/>
  <path id="ct" data-name="Trazado 7598" class="cu" d="m75.12,20.22c-.38-.16-.67-.3-.67-.57,0-.21.17-.36.48-.36.34.02.67.12.96.3l.14-.7c-.37-.13-.75-.2-1.14-.21-.83,0-1.37.4-1.37,1.03s.56.9.98,1.07c.38.16.76.29.76.61,0,.22-.16.39-.54.39-.39-.03-.78-.14-1.12-.34l-.14.71c.4.15.83.23,1.26.24.99,0,1.47-.48,1.47-1.08,0-.67-.62-.91-1.06-1.09"/>
</svg>